#!OML:ASF E:\emotionWalksFemale\Project 1\Capture day 1\Session 1\Female1.ASF
:FULLY-SPECIFIED
:DEGREES
1061
root 9.19384 15.2088 -34.0399 183.881 -193.066 -176.13
lowerback 8.02782 -2.61536 -3.65591
upperback -5.88068 -4.06525 -0.751149
thorax -10.6258 -1.71829 1.9274
lowerneck -5.98631 -3.73184 -7.23305
upperneck 10.2266 -4.757 4.24609
head 4.31525 -2.39766 2.21041
rclavicle 3.48401e-014 6.90777e-015
rhumerus -74.4945 13.2792 -92.7341
rradius 29.9777
rwrist 6.90272
rhand -2.72271 -44.3854
rfingers 7.12502
rthumb -157.02 466.964
lclavicle 3.48401e-014 6.90777e-015
lhumerus -10.2842 -15.6859 76.8867
lradius 77.7701
lwrist 28.3915
lhand -15.2119 318.617
lfingers 7.12502
lthumb 10.9603 -11.6893
rfemur -29.4241 4.79763 22.9791
rtibia 30.4542
rfoot -20.2462 -30.1939
rtoes -1.75619
lfemur 19.6789 -10.4042 -33.6456
ltibia 6.92018
lfoot -8.57449 9.92845
ltoes -16.7021
1062
root 9.20363 15.1957 -33.9126 183.909 -192.964 -176.155
lowerback 7.7935 -2.57289 -3.62187
upperback -5.97579 -3.99775 -0.777193
thorax -10.5993 -1.68974 1.85917
lowerneck -6.1787 -3.76435 -7.24781
upperneck 10.4658 -4.79894 4.31085
head 4.42481 -2.4147 2.22573
rclavicle 3.06128e-014 -5.91384e-015
rhumerus -73.7784 13.0411 -92.8066
rradius 29.49
rwrist 7.76645
rhand -3.13525 -45.0293
rfingers 7.12502
rthumb -157.416 466.272
lclavicle 3.06128e-014 -5.91384e-015
lhumerus -11.8651 -16.3564 77.4177
lradius 76.6051
lwrist 28.5158
lhand -15.4222 318.537
lfingers 7.12502
lthumb 10.7575 -11.7587
rfemur -28.3298 5.07628 23.1631
rtibia 29.4181
rfoot -19.0026 -30.6558
rtoes -2.13898
lfemur 19.2263 -10.1481 -33.5008
ltibia 8.78213
lfoot -9.00274 9.55258
ltoes -15.8053
1063
root 9.21232 15.1944 -33.7805 183.903 -192.755 -176.467
lowerback 7.67571 -2.51026 -3.26828
upperback -6.17883 -3.86691 -0.740115
thorax -10.7818 -1.64518 1.68082
lowerneck -6.32515 -3.78651 -7.23742
upperneck 10.7939 -4.82774 4.30895
head 4.55117 -2.42895 2.21767
rclavicle 5.31749e-015 1.88845e-015
rhumerus -73.0161 12.6116 -92.5106
rradius 29.1154
rwrist 8.65419
rhand -2.64199 -46.7468
rfingers 7.12502
rthumb -156.942 464.613
lclavicle 5.31749e-015 1.88845e-015
lhumerus -13.4639 -16.7968 78.1459
lradius 75.122
lwrist 28.3167
lhand -15.7337 318.578
lfingers 7.12502
lthumb 10.4571 -11.7021
rfemur -27.5447 5.45927 23.6498
rtibia 28.6338
rfoot -16.9297 -31.4658
rtoes -0.866344
lfemur 18.7746 -9.78899 -32.9984
ltibia 10.4991
lfoot -9.12659 9.31941
ltoes -14.3713
1064
root 9.22192 15.2149 -33.6472 184.047 -192.476 -176.846
lowerback 6.94887 -2.43442 -3.02525
upperback -6.1968 -3.68337 -0.530845
thorax -10.3717 -1.57721 1.70195
lowerneck -6.3544 -3.8097 -7.37074
upperneck 10.7081 -4.83002 4.22103
head 4.53153 -2.43932 2.21157
rclavicle 3.15633e-014 1.83876e-015
rhumerus -71.7477 12.321 -91.8596
rradius 28.8044
rwrist 9.56984
rhand -1.70586 -49.0392
rfingers 7.12502
rthumb -156.045 462.435
lclavicle 3.15633e-014 1.83876e-015
lhumerus -14.99 -16.7555 79.1282
lradius 73.6114
lwrist 27.9296
lhand -16.0386 318.696
lfingers 7.12502
lthumb 10.163 -11.5692
rfemur -27.0917 5.84195 24.1456
rtibia 27.9691
rfoot -15.1288 -32.0111
rtoes 1.7194
lfemur 17.781 -9.14958 -32.2908
ltibia 12.6553
lfoot -8.97878 8.78715
ltoes -14.2876
1065
root 9.2322 15.2434 -33.5204 184.166 -192.109 -177.45
lowerback 6.58135 -2.3267 -2.53679
upperback -6.39653 -3.4482 -0.265954
thorax -10.3937 -1.48676 1.66435
lowerneck -6.23118 -3.8047 -7.42821
upperneck 10.7478 -4.80675 4.04686
head 4.51939 -2.44163 2.17042
rclavicle 7.67806e-015 5.06901e-015
rhumerus -70.5165 11.9989 -91.2474
rradius 28.3275
rwrist 10.5392
rhand -1.35571 -50.8273
rfingers 7.12502
rthumb -155.709 460.692
lclavicle 7.67806e-015 5.06901e-015
lhumerus -16.7383 -16.6114 80.2332
lradius 71.7849
lwrist 27.5494
lhand -16.5381 319.208
lfingers 7.12502
lthumb 9.68101 -11.0343
rfemur -26.7473 5.96785 24.9199
rtibia 27.4193
rfoot -13.9488 -31.6777
rtoes 3.92183
lfemur 16.4358 -8.38977 -31.332
ltibia 15.1994
lfoot -8.3727 8.16106
ltoes -15.2559
